<?xml version="1.0" encoding="UTF-8" standalone="no"?>
<svg
   xmlns:dc="http://purl.org/dc/elements/1.1/"
   xmlns:cc="http://creativecommons.org/ns#"
   xmlns:rdf="http://www.w3.org/1999/02/22-rdf-syntax-ns#"
   xmlns:svg="http://www.w3.org/2000/svg"
   xmlns="http://www.w3.org/2000/svg"
   xmlns:sodipodi="http://sodipodi.sourceforge.net/DTD/sodipodi-0.dtd"
   xmlns:inkscape="http://www.inkscape.org/namespaces/inkscape"
   version="1.1"
   x="0"
   y="0"
   width="1100"
   height="1200"
   viewBox="0, 0, 1100, 1200"
   id="svg195"
   sodipodi:docname="GraphQL-logo-stacked-white-no_background.svg"
   inkscape:version="1.0.2 (e86c8708, 2021-01-15)">
  <metadata
     id="metadata201">
    <rdf:RDF>
      <cc:Work
         rdf:about="">
        <dc:format>image/svg+xml</dc:format>
        <dc:type
           rdf:resource="http://purl.org/dc/dcmitype/StillImage" />
        <dc:title></dc:title>
      </cc:Work>
    </rdf:RDF>
  </metadata>
  <defs
     id="defs199" />
  <sodipodi:namedview
     pagecolor="#ffffff"
     bordercolor="#666666"
     borderopacity="1"
     objecttolerance="10"
     gridtolerance="10"
     guidetolerance="10"
     inkscape:pageopacity="0"
     inkscape:pageshadow="2"
     inkscape:window-width="1794"
     inkscape:window-height="1117"
     id="namedview197"
     showgrid="false"
     inkscape:zoom="0.84"
     inkscape:cx="550"
     inkscape:cy="600"
     inkscape:window-x="0"
     inkscape:window-y="23"
     inkscape:window-maximized="0"
     inkscape:current-layer="svg195" />
  <g
     id="Layer_1">
    <g
       id="g192">
      <g
         id="GraphQL-mark">
        <path
           d="M304.1,619.752 L279.298,605.433 L555.593,126.888 L580.395,141.208 z"
           fill="#FFFFFF"
           id="path146" />
        <path
           d="M273.618,567.202 L826.209,567.202 L826.209,595.84 L273.618,595.84 z"
           fill="#FFFFFF"
           id="path148" />
        <path
           d="M560.952,742.875 L284.553,583.291 L298.872,558.489 L575.271,718.073 z"
           fill="#FFFFFF"
           id="path150" />
        <path
           d="M801.059,326.958 L524.66,167.374 L538.979,142.573 L815.378,302.156 z"
           fill="#FFFFFF"
           id="path152" />
        <path
           d="M298.948,326.848 L284.629,302.048 L561.028,142.464 L575.347,167.264 z"
           fill="#FFFFFF"
           id="path154" />
        <path
           d="M795.963,619.757 L519.667,141.213 L544.469,126.894 L820.764,605.438 z"
           fill="#FFFFFF"
           id="path156" />
        <path
           d="M295.529,283.056 L324.167,283.056 L324.167,602.224 L295.529,602.224 z"
           fill="#FFFFFF"
           id="path158" />
        <path
           d="M775.833,283.056 L804.471,283.056 L804.471,602.224 L775.833,602.224 z"
           fill="#FFFFFF"
           id="path160" />
        <path
           d="M556.076,730.752 L543.568,709.088 L783.96,570.293 L796.468,591.957 z"
           fill="#FFFFFF"
           id="path162" />
        <path
           d="M842.427,611.54 C825.864,640.351 788.944,650.185 760.133,633.623 C731.322,617.061 721.488,580.141 738.05,551.329 C754.612,522.518 791.532,512.684 820.344,529.247 C849.327,545.981 859.161,582.729 842.427,611.54"
           fill="#FFFFFF"
           id="path164" />
        <path
           d="M361.777,333.951 C345.215,362.762 308.295,372.596 279.484,356.033 C250.673,339.471 240.839,302.551 257.401,273.74 C273.963,244.929 310.883,235.095 339.694,251.657 C368.506,268.392 378.34,305.139 361.777,333.951"
           fill="#FFFFFF"
           id="path166" />
        <path
           d="M257.574,611.54 C241.011,582.729 250.845,545.981 279.656,529.247 C308.468,512.684 345.215,522.518 361.95,551.329 C378.512,580.141 368.678,616.888 339.867,633.623 C310.883,650.185 274.136,640.351 257.574,611.54"
           fill="#FFFFFF"
           id="path168" />
        <path
           d="M738.223,333.951 C721.66,305.139 731.494,268.392 760.306,251.657 C789.117,235.095 825.864,244.929 842.599,273.74 C859.161,302.551 849.327,339.299 820.516,356.033 C791.705,372.596 754.785,362.762 738.223,333.951"
           fill="#FFFFFF"
           id="path170" />
        <path
           d="M550,780.44 C516.703,780.44 489.789,753.526 489.789,720.229 C489.789,686.933 516.703,660.019 550,660.019 C583.297,660.019 610.211,686.933 610.211,720.229 C610.211,753.354 583.297,780.44 550,780.44"
           fill="#FFFFFF"
           id="path172" />
        <path
           d="M550,225.261 C516.703,225.261 489.789,198.347 489.789,165.051 C489.789,131.754 516.703,104.84 550,104.84 C583.297,104.84 610.211,131.754 610.211,165.051 C610.211,198.347 583.297,225.261 550,225.261"
           fill="#FFFFFF"
           id="path174" />
      </g>
      <g
         id="GraphQL-text">
        <path
           d="M916.323,1048.99 Q913.893,1048.99 912.435,1047.532 Q910.977,1046.074 910.977,1043.644 L910.977,884.236 Q910.977,881.806 912.435,880.348 Q913.893,878.89 916.323,878.89 L920.94,878.89 Q923.37,878.89 924.828,880.348 Q926.286,881.806 926.286,884.236 L926.286,1034.41 L1010.121,1034.41 Q1012.794,1034.41 1014.252,1035.868 Q1015.71,1037.326 1015.71,1039.999 L1015.71,1043.644 Q1015.71,1046.074 1014.252,1047.532 Q1012.794,1048.99 1010.121,1048.99 z"
           fill="#FFFFFF"
           id="path177" />
        <path
           d="M860.189,1064.785 Q857.516,1064.785 855.572,1062.719 Q853.628,1060.654 852.413,1059.196 L841.721,1044.373 Q827.141,1051.42 807.701,1051.42 Q787.532,1051.42 773.438,1044.251 Q759.344,1037.083 751.811,1022.138 Q744.278,1007.194 743.549,984.352 Q743.306,973.417 743.306,963.94 Q743.306,954.463 743.549,943.528 Q744.278,920.929 752.297,905.984 Q760.316,891.04 774.532,883.75 Q788.747,876.46 807.701,876.46 Q826.655,876.46 840.871,883.75 Q855.086,891.04 863.227,905.984 Q871.367,920.929 871.853,943.528 Q872.339,954.463 872.339,963.94 Q872.339,973.417 871.853,984.352 Q870.638,1019.101 854.114,1035.382 L869.666,1057.252 Q869.909,1057.495 870.152,1058.102 Q870.395,1058.71 870.395,1059.925 Q870.395,1061.869 868.937,1063.327 Q867.479,1064.785 865.535,1064.785 z M807.701,1036.84 Q828.599,1036.84 842.086,1024.204 Q855.572,1011.568 856.544,983.137 Q857.03,972.202 857.03,963.94 Q857.03,955.678 856.544,944.743 Q856.058,925.789 849.619,913.882 Q843.179,901.975 832.366,896.507 Q821.552,891.04 807.701,891.04 Q794.093,891.04 783.28,896.507 Q772.466,901.975 766.027,913.882 Q759.587,925.789 758.858,944.743 Q758.615,955.678 758.615,963.94 Q758.615,972.202 758.858,983.137 Q759.83,1011.568 773.438,1024.204 Q787.046,1036.84 807.701,1036.84 z"
           fill="#FFFFFF"
           id="path179" />
        <path
           d="M608.927,1048.99 Q606.497,1048.99 605.039,1047.532 Q603.582,1046.074 603.582,1043.644 L603.582,881.806 Q603.582,879.376 605.039,877.918 Q606.497,876.46 608.927,876.46 L613.059,876.46 Q615.489,876.46 616.947,877.918 Q618.405,879.376 618.405,881.806 L618.405,939.397 Q624.966,930.892 634.321,925.546 Q643.677,920.2 659.229,920.2 Q675.753,920.2 686.809,927.368 Q697.866,934.537 703.333,946.808 Q708.801,959.08 708.801,974.632 L708.801,1043.644 Q708.801,1046.074 707.343,1047.532 Q705.885,1048.99 703.455,1048.99 L699.323,1048.99 Q696.893,1048.99 695.435,1047.532 Q693.978,1046.074 693.978,1043.644 L693.978,975.847 Q693.978,956.407 684.5,945.35 Q675.023,934.294 656.799,934.294 Q639.546,934.294 628.975,945.35 Q618.405,956.407 618.405,975.847 L618.405,1043.644 Q618.405,1046.074 616.947,1047.532 Q615.489,1048.99 613.059,1048.99 z"
           fill="#FFFFFF"
           id="path181" />
        <path
           d="M467.745,1095.16 Q465.315,1095.16 463.857,1093.702 Q462.398,1092.244 462.398,1089.814 L462.398,927.976 Q462.398,925.546 463.857,924.088 Q465.315,922.63 467.745,922.63 L471.876,922.63 Q474.306,922.63 475.764,924.088 Q477.221,925.546 477.221,927.976 L477.221,939.397 Q483.297,931.135 493.138,925.667 Q502.98,920.2 518.046,920.2 Q532.383,920.2 542.103,925.181 Q551.823,930.163 557.898,938.425 Q563.973,946.687 566.888,956.893 Q569.805,967.099 570.047,977.791 Q570.291,981.436 570.291,985.81 Q570.291,990.184 570.047,993.829 Q569.805,1004.521 566.888,1014.727 Q563.973,1024.933 557.898,1033.195 Q551.823,1041.457 542.103,1046.438 Q532.383,1051.42 518.046,1051.42 Q502.98,1051.42 493.138,1045.831 Q483.297,1040.242 477.221,1032.223 L477.221,1089.814 Q477.221,1092.244 475.764,1093.702 Q474.306,1095.16 471.876,1095.16 z M516.588,1037.326 Q530.924,1037.326 539.187,1031.008 Q547.448,1024.69 551.094,1014.484 Q554.739,1004.278 555.224,992.614 Q555.468,985.81 555.224,979.006 Q554.739,967.342 551.094,957.136 Q547.448,946.93 539.187,940.612 Q530.924,934.294 516.588,934.294 Q502.737,934.294 494.232,940.855 Q485.727,947.416 481.717,957.257 Q477.708,967.099 477.221,977.062 Q476.979,980.707 476.979,986.539 Q476.979,992.371 477.221,996.016 Q477.465,1005.736 481.717,1015.213 Q485.97,1024.69 494.596,1031.008 Q503.223,1037.326 516.588,1037.326 z"
           fill="#FFFFFF"
           id="path183" />
        <path
           d="M365.927,1051.42 Q354.263,1051.42 344.422,1046.56 Q334.58,1041.7 328.505,1033.559 Q322.43,1025.419 322.43,1015.213 Q322.43,998.689 335.795,988.726 Q349.16,978.763 370.544,975.847 L408.938,970.501 L408.938,961.996 Q408.938,949.117 401.041,941.705 Q393.143,934.294 375.89,934.294 Q363.254,934.294 355.478,939.275 Q347.702,944.257 344.786,952.276 Q343.571,955.921 340.169,955.921 L336.281,955.921 Q333.365,955.921 332.15,954.341 Q330.935,952.762 330.935,950.575 Q330.935,947.173 333.487,942.07 Q336.038,936.967 341.384,931.985 Q346.73,927.004 355.235,923.602 Q363.74,920.2 375.89,920.2 Q390.227,920.2 399.583,924.088 Q408.938,927.976 414.163,934.172 Q419.387,940.369 421.574,947.902 Q423.761,955.435 423.761,962.725 L423.761,1043.644 Q423.761,1046.074 422.303,1047.532 Q420.845,1048.99 418.415,1048.99 L414.284,1048.99 Q411.854,1048.99 410.396,1047.532 Q408.938,1046.074 408.938,1043.644 L408.938,1032.223 Q406.022,1036.597 400.676,1040.971 Q395.33,1045.345 386.947,1048.382 Q378.563,1051.42 365.927,1051.42 z M368.357,1037.326 Q379.535,1037.326 388.77,1032.466 Q398.003,1027.606 403.471,1017.521 Q408.938,1007.437 408.938,992.128 L408.938,983.866 L377.591,988.24 Q357.665,990.913 347.459,997.474 Q337.253,1004.035 337.253,1013.998 Q337.253,1022.017 341.87,1027.12 Q346.487,1032.223 353.656,1034.774 Q360.824,1037.326 368.357,1037.326 z"
           fill="#FFFFFF"
           id="path185" />
        <path
           d="M254.634,1048.99 Q252.204,1048.99 250.746,1047.532 Q249.288,1046.074 249.288,1043.644 L249.288,928.219 Q249.288,925.789 250.746,924.209 Q252.204,922.63 254.634,922.63 L258.522,922.63 Q260.952,922.63 262.531,924.209 Q264.111,925.789 264.111,928.219 L264.111,939.397 Q268.485,930.892 276.747,926.761 Q285.009,922.63 297.159,922.63 L306.15,922.63 Q308.58,922.63 310.038,924.088 Q311.496,925.546 311.496,927.976 L311.496,931.378 Q311.496,933.808 310.038,935.266 Q308.58,936.724 306.15,936.724 L295.701,936.724 Q281.121,936.724 272.616,945.229 Q264.111,953.734 264.111,968.314 L264.111,1043.644 Q264.111,1046.074 262.531,1047.532 Q260.952,1048.99 258.522,1048.99 z"
           fill="#FFFFFF"
           id="path187" />
        <path
           d="M149.414,1051.42 Q128.516,1051.42 114.301,1043.279 Q100.085,1035.139 92.674,1020.559 Q85.262,1005.979 84.533,987.025 Q84.29,976.09 84.29,963.94 Q84.29,951.79 84.533,940.855 Q85.262,921.658 92.674,907.199 Q100.085,892.741 114.422,884.6 Q128.759,876.46 149.414,876.46 Q166.181,876.46 178.088,881.441 Q189.995,886.423 197.528,893.834 Q205.061,901.246 208.706,908.779 Q212.351,916.312 212.594,921.415 Q212.837,923.602 211.379,924.938 Q209.921,926.275 207.491,926.275 L202.145,926.275 Q199.958,926.275 198.986,925.181 Q198.014,924.088 197.042,921.415 Q194.612,913.882 188.902,906.956 Q183.191,900.031 173.593,895.535 Q163.994,891.04 149.414,891.04 Q127.787,891.04 114.301,902.825 Q100.814,914.611 99.842,942.07 Q99.113,963.94 99.842,985.81 Q100.814,1013.026 114.301,1024.933 Q127.787,1036.84 149.414,1036.84 Q163.751,1036.84 175.172,1031.372 Q186.593,1025.905 193.154,1014.605 Q199.715,1003.306 199.715,985.81 L199.715,973.417 L157.433,973.417 Q155.003,973.417 153.545,971.837 Q152.087,970.258 152.087,967.828 L152.087,964.426 Q152.087,961.753 153.545,960.295 Q155.003,958.837 157.433,958.837 L209.435,958.837 Q212.108,958.837 213.566,960.295 Q215.024,961.753 215.024,964.426 L215.024,985.81 Q215.024,1005.25 207.37,1020.073 Q199.715,1034.896 185.014,1043.158 Q170.312,1051.42 149.414,1051.42 z"
           fill="#FFFFFF"
           id="path189" />
      </g>
    </g>
  </g>
</svg>
