<?xml version="1.0" encoding="UTF-8"?>
<!DOCTYPE svg PUBLIC "-//W3C//DTD SVG 1.1//EN" "http://www.w3.org/Graphics/SVG/1.1/DTD/svg11.dtd">
<svg version="1.1" xmlns="http://www.w3.org/2000/svg" xmlns:xlink="http://www.w3.org/1999/xlink" x="0" y="0" width="1100" height="1200" viewBox="0, 0, 1100, 1200">
  <g id="g4759">
    <path d="M122.393,1051.455 Q101.491,1051.455 87.151,1043.434 Q73.054,1035.171 65.52,1020.588 Q58.228,1006.005 57.499,987.047 Q57.256,976.11 57.256,963.958 Q57.256,951.805 57.499,940.868 Q58.228,921.667 65.52,907.327 Q73.054,892.745 87.394,884.724 Q101.734,876.46 122.393,876.46 Q139.163,876.46 151.073,881.564 Q162.982,886.425 170.517,893.96 Q178.051,901.251 181.697,908.786 Q185.343,916.32 185.586,921.424 Q185.829,923.612 184.37,925.07 Q182.912,926.285 180.482,926.285 L175.135,926.285 Q172.947,926.285 171.975,925.313 Q171.003,924.098 170.031,921.424 Q167.6,913.89 161.767,907.084 Q156.177,900.036 146.455,895.661 Q136.976,891.043 122.393,891.043 Q100.762,891.043 87.151,902.953 Q73.784,914.619 72.811,942.083 Q72.082,963.958 72.811,985.832 Q73.784,1013.053 87.151,1024.963 Q100.762,1036.872 122.393,1036.872 Q136.733,1036.872 148.156,1031.525 Q159.579,1025.935 166.142,1014.755 Q172.704,1003.331 172.704,985.832 L172.704,973.436 L130.414,973.436 Q127.983,973.436 126.525,971.978 Q125.067,970.277 125.067,967.846 L125.067,964.444 Q125.067,961.77 126.525,960.312 Q127.983,958.854 130.414,958.854 L182.426,958.854 Q185.1,958.854 186.558,960.312 Q188.016,961.77 188.016,964.444 L188.016,985.832 Q188.016,1005.276 180.239,1020.102 Q172.704,1034.928 157.878,1043.191 Q143.295,1051.455 122.393,1051.455 z" fill="#000000" id="path4692"/>
    <path d="M227.648,1049.024 Q225.218,1049.024 223.759,1047.566 Q222.301,1046.108 222.301,1043.677 L222.301,928.23 Q222.301,925.799 223.759,924.341 Q225.218,922.639 227.648,922.639 L231.537,922.639 Q233.967,922.639 235.426,924.341 Q237.127,925.799 237.127,928.23 L237.127,939.41 Q241.502,930.903 249.765,926.771 Q258.029,922.639 270.181,922.639 L279.174,922.639 Q281.605,922.639 283.063,924.098 Q284.521,925.556 284.521,927.987 L284.521,931.389 Q284.521,933.82 283.063,935.278 Q281.605,936.736 279.174,936.736 L268.723,936.736 Q254.14,936.736 245.634,945.243 Q237.127,953.75 237.127,968.333 L237.127,1043.677 Q237.127,1046.108 235.426,1047.566 Q233.967,1049.024 231.537,1049.024 z" fill="#000000" id="path4694"/>
    <path d="M338.926,1051.455 Q327.26,1051.455 317.295,1046.594 Q307.573,1041.733 301.497,1033.712 Q295.421,1025.449 295.421,1015.241 Q295.421,998.714 308.788,988.749 Q322.156,978.784 343.544,975.867 L381.946,970.52 L381.946,962.013 Q381.946,949.132 373.925,941.84 Q366.147,934.306 348.891,934.306 Q336.253,934.306 328.475,939.41 Q320.697,944.271 317.781,952.291 Q316.566,955.937 313.163,955.937 L309.274,955.937 Q306.358,955.937 305.142,954.479 Q303.927,952.777 303.927,950.59 Q303.927,947.187 306.358,942.083 Q309.031,936.979 314.378,932.118 Q319.725,927.014 328.232,923.612 Q336.739,920.209 348.891,920.209 Q363.231,920.209 372.467,924.098 Q381.946,927.987 387.05,934.306 Q392.397,940.382 394.584,947.916 Q396.772,955.451 396.772,962.742 L396.772,1043.677 Q396.772,1046.108 395.313,1047.566 Q393.855,1049.024 391.424,1049.024 L387.293,1049.024 Q384.862,1049.024 383.404,1047.566 Q381.946,1046.108 381.946,1043.677 L381.946,1032.254 Q379.029,1036.629 373.682,1041.004 Q368.335,1045.379 359.828,1048.538 Q351.565,1051.455 338.926,1051.455 z M341.357,1037.358 Q352.537,1037.358 361.773,1032.497 Q371.008,1027.636 376.355,1017.671 Q381.946,1007.463 381.946,992.151 L381.946,983.888 L350.592,988.262 Q330.662,990.936 320.454,997.498 Q310.246,1004.061 310.246,1014.026 Q310.246,1022.046 314.864,1027.15 Q319.482,1032.254 326.531,1034.928 Q333.822,1037.358 341.357,1037.358 z" fill="#000000" id="path4696"/>
    <path d="M440.558,1095.203 Q438.128,1095.203 436.669,1093.745 Q435.211,1092.287 435.211,1089.856 L435.211,927.987 Q435.211,925.556 436.669,924.098 Q438.128,922.639 440.558,922.639 L444.69,922.639 Q447.12,922.639 448.579,924.098 Q450.037,925.556 450.037,927.987 L450.037,939.41 Q456.113,931.146 465.835,925.799 Q475.8,920.209 490.869,920.209 Q505.209,920.209 514.931,925.313 Q524.653,930.174 530.729,938.438 Q536.805,946.701 539.722,956.909 Q542.638,967.117 542.881,977.811 Q543.124,981.457 543.124,985.832 Q543.124,990.207 542.881,993.853 Q542.638,1004.547 539.722,1014.755 Q536.805,1024.963 530.729,1033.226 Q524.653,1041.49 514.931,1046.594 Q505.209,1051.455 490.869,1051.455 Q475.8,1051.455 465.835,1045.865 Q456.113,1040.275 450.037,1032.254 L450.037,1089.856 Q450.037,1092.287 448.579,1093.745 Q447.12,1095.203 444.69,1095.203 z M489.411,1037.358 Q503.751,1037.358 512.014,1031.039 Q520.278,1024.72 523.924,1014.512 Q527.569,1004.304 528.055,992.637 Q528.298,985.832 528.055,979.027 Q527.569,967.36 523.924,957.152 Q520.278,946.944 512.014,940.625 Q503.751,934.306 489.411,934.306 Q475.557,934.306 467.05,940.868 Q458.544,947.43 454.412,957.395 Q450.523,967.117 450.037,977.082 Q449.794,980.728 449.794,986.561 Q449.794,992.394 450.037,996.04 Q450.28,1005.762 454.412,1015.241 Q458.787,1024.72 467.293,1031.039 Q476.043,1037.358 489.411,1037.358 z" fill="#000000" id="path4698"/>
    <path d="M581.545,1049.024 Q579.115,1049.024 577.656,1047.566 Q576.198,1046.108 576.198,1043.677 L576.198,881.807 Q576.198,879.377 577.656,877.919 Q579.115,876.46 581.545,876.46 L585.677,876.46 Q588.107,876.46 589.566,877.919 Q591.024,879.377 591.024,881.807 L591.024,939.41 Q597.586,930.903 606.822,925.556 Q616.301,920.209 631.856,920.209 Q648.383,920.209 659.32,927.5 Q670.501,934.549 675.848,946.944 Q681.438,959.097 681.438,974.652 L681.438,1043.677 Q681.438,1046.108 679.979,1047.566 Q678.521,1049.024 676.091,1049.024 L671.959,1049.024 Q669.528,1049.024 668.07,1047.566 Q666.612,1046.108 666.612,1043.677 L666.612,975.867 Q666.612,956.423 657.133,945.486 Q647.654,934.306 629.425,934.306 Q612.169,934.306 601.475,945.486 Q591.024,956.423 591.024,975.867 L591.024,1043.677 Q591.024,1046.108 589.566,1047.566 Q588.107,1049.024 585.677,1049.024 z" fill="#000000" id="path4700"/>
    <path d="M725.137,1049.024 Q722.706,1049.024 721.248,1047.566 Q719.79,1046.108 719.79,1043.677 L719.79,927.987 Q719.79,925.556 721.248,924.098 Q722.706,922.639 725.137,922.639 L729.269,922.639 Q731.699,922.639 733.158,924.098 Q734.616,925.556 734.616,927.987 L734.616,1043.677 Q734.616,1046.108 733.158,1047.566 Q731.699,1049.024 729.269,1049.024 z M722.463,896.633 Q720.033,896.633 718.575,895.175 Q717.116,893.717 717.116,891.286 L717.116,882.05 Q717.116,879.62 718.575,878.162 Q720.033,876.46 722.463,876.46 L731.699,876.46 Q734.13,876.46 735.588,878.162 Q737.289,879.62 737.289,882.05 L737.289,891.286 Q737.289,893.717 735.588,895.175 Q734.13,896.633 731.699,896.633 z" fill="#000000" id="path4702"/>
    <path d="M887.166,1064.823 Q884.493,1064.823 882.549,1062.635 Q880.604,1060.691 879.389,1059.232 L868.695,1044.406 Q854.112,1051.455 834.668,1051.455 Q814.495,1051.455 800.398,1044.406 Q786.302,1037.115 778.767,1022.289 Q771.232,1007.22 770.503,984.374 Q770.26,973.436 770.26,963.958 Q770.26,954.479 770.503,943.542 Q771.232,920.938 779.253,906.112 Q787.274,891.043 801.37,883.752 Q815.71,876.46 834.668,876.46 Q853.626,876.46 867.723,883.752 Q882.062,891.043 890.083,906.112 Q898.347,920.938 898.833,943.542 Q899.319,954.479 899.319,963.958 Q899.319,973.436 898.833,984.374 Q897.617,1019.13 881.09,1035.414 L896.645,1057.288 Q896.888,1057.531 897.131,1058.017 Q897.374,1058.746 897.374,1059.962 Q897.374,1061.906 895.916,1063.364 Q894.458,1064.823 892.513,1064.823 z M834.668,1036.872 Q855.57,1036.872 868.938,1024.234 Q882.549,1011.595 883.521,983.158 Q884.007,972.221 884.007,963.958 Q884.007,955.694 883.521,944.757 Q883.035,925.799 876.472,913.89 Q870.153,901.98 859.216,896.633 Q848.522,891.043 834.668,891.043 Q821.057,891.043 810.12,896.633 Q799.426,901.98 792.864,913.89 Q786.544,925.799 785.815,944.757 Q785.572,955.694 785.572,963.958 Q785.572,972.221 785.815,983.158 Q786.788,1011.595 800.398,1024.234 Q814.009,1036.872 834.668,1036.872 z" fill="#000000" id="path4704"/>
    <path d="M943.337,1049.024 Q940.907,1049.024 939.448,1047.566 Q937.99,1046.108 937.99,1043.677 L937.99,884.238 Q937.99,881.807 939.448,880.349 Q940.907,878.891 943.337,878.891 L947.955,878.891 Q950.385,878.891 951.844,880.349 Q953.302,881.807 953.302,884.238 L953.302,1034.442 L1037.154,1034.442 Q1039.827,1034.442 1041.286,1035.9 Q1042.744,1037.358 1042.744,1040.032 L1042.744,1043.677 Q1042.744,1046.108 1041.286,1047.566 Q1039.827,1049.024 1037.154,1049.024 z" fill="#000000" id="path4706"/>
    <g id="GraphQL-mark">
      <path d="M304.1,619.752 L279.298,605.433 L555.593,126.888 L580.395,141.208 z" fill="#000000" id="path824"/>
      <path d="M273.618,567.202 L826.209,567.202 L826.209,595.84 L273.618,595.84 z" fill="#000000" id="path826"/>
      <path d="M560.952,742.875 L284.553,583.291 L298.872,558.489 L575.271,718.073 z" fill="#000000" id="path828"/>
      <path d="M801.059,326.958 L524.66,167.374 L538.979,142.573 L815.378,302.156 z" fill="#000000" id="path830"/>
      <path d="M298.948,326.848 L284.629,302.048 L561.028,142.464 L575.347,167.264 z" fill="#000000" id="path832"/>
      <path d="M795.963,619.757 L519.667,141.213 L544.469,126.894 L820.764,605.438 z" fill="#000000" id="path834"/>
      <path d="M295.529,283.056 L324.167,283.056 L324.167,602.224 L295.529,602.224 z" fill="#000000" id="path836"/>
      <path d="M775.833,283.056 L804.471,283.056 L804.471,602.224 L775.833,602.224 z" fill="#000000" id="path838"/>
      <path d="M556.076,730.752 L543.568,709.088 L783.96,570.293 L796.468,591.957 z" fill="#000000" id="path840"/>
      <path d="M842.427,611.54 C825.864,640.351 788.944,650.185 760.133,633.623 C731.322,617.061 721.488,580.141 738.05,551.329 C754.612,522.518 791.532,512.684 820.344,529.247 C849.327,545.981 859.161,582.729 842.427,611.54" fill="#000000" id="path842"/>
      <path d="M361.777,333.951 C345.215,362.762 308.295,372.596 279.484,356.033 C250.673,339.471 240.839,302.551 257.401,273.74 C273.963,244.929 310.883,235.095 339.694,251.657 C368.506,268.392 378.34,305.139 361.777,333.951" fill="#000000" id="path844"/>
      <path d="M257.574,611.54 C241.011,582.729 250.845,545.981 279.656,529.247 C308.468,512.684 345.215,522.518 361.95,551.329 C378.512,580.141 368.678,616.888 339.867,633.623 C310.883,650.185 274.136,640.351 257.574,611.54" fill="#000000" id="path846"/>
      <path d="M738.223,333.951 C721.66,305.139 731.494,268.392 760.306,251.657 C789.117,235.095 825.864,244.929 842.599,273.74 C859.161,302.551 849.327,339.299 820.516,356.033 C791.705,372.596 754.785,362.762 738.223,333.951" fill="#000000" id="path848"/>
      <path d="M550,780.44 C516.703,780.44 489.789,753.526 489.789,720.229 C489.789,686.933 516.703,660.019 550,660.019 C583.297,660.019 610.211,686.933 610.211,720.229 C610.211,753.354 583.297,780.44 550,780.44" fill="#000000" id="path850"/>
      <path d="M550,225.261 C516.703,225.261 489.789,198.347 489.789,165.051 C489.789,131.754 516.703,104.84 550,104.84 C583.297,104.84 610.211,131.754 610.211,165.051 C610.211,198.347 583.297,225.261 550,225.261" fill="#000000" id="path852"/>
    </g>
  </g>
</svg>
