<?xml version="1.0" encoding="UTF-8" standalone="no"?>
<svg
   version="1.1"
   x="0"
   y="0"
   width="1100"
   height="1200"
   viewBox="0, 0, 1100, 1200"
   id="svg873"
   sodipodi:docname="GraphiQL-logo-stacked.svg"
   inkscape:version="1.1 (c4e8f9e, 2021-05-24)"
   xmlns:inkscape="http://www.inkscape.org/namespaces/inkscape"
   xmlns:sodipodi="http://sodipodi.sourceforge.net/DTD/sodipodi-0.dtd"
   xmlns="http://www.w3.org/2000/svg"
   xmlns:svg="http://www.w3.org/2000/svg">
  <defs
     id="defs877" />
  <sodipodi:namedview
     id="namedview875"
     pagecolor="#ffffff"
     bordercolor="#666666"
     borderopacity="1.0"
     inkscape:pageshadow="2"
     inkscape:pageopacity="0.0"
     inkscape:pagecheckerboard="0"
     showgrid="false"
     inkscape:zoom="0.51442018"
     inkscape:cx="227.44053"
     inkscape:cy="640.52697"
     inkscape:window-width="2371"
     inkscape:window-height="1081"
     inkscape:window-x="0"
     inkscape:window-y="25"
     inkscape:window-maximized="0"
     inkscape:current-layer="svg873" />
  <g
     id="g4759">
    <path
       d="m 122.39311,1051.4549 q -20.90212,0 -35.241957,-8.0206 -14.096784,-8.2636 -21.631272,-22.8465 -7.29144,-14.5829 -8.020584,-33.54063 -0.243048,-10.93716 -0.243048,-23.08956 0,-12.1524 0.243048,-23.08956 0.729144,-19.20079 8.020584,-33.54062 7.534488,-14.58288 21.87432,-22.60347 14.339829,-8.26363 34.998909,-8.26363 16.77032,0 28.67967,5.10401 11.90935,4.86096 19.44384,12.39545 7.53449,7.29144 11.18021,14.82593 3.64572,7.53448 3.88876,12.63849 0.24305,2.18743 -1.21524,3.64572 -1.45828,1.21524 -3.88876,1.21524 h -5.34706 q -2.18743,0 -3.15962,-0.97219 -0.9722,-1.21524 -1.94439,-3.88877 -2.43048,-7.53449 -8.26363,-14.33983 -5.5901,-7.04839 -15.31202,-11.42326 -9.47888,-4.61791 -24.06176,-4.61791 -21.63127,0 -35.241957,11.90935 -13.36764,11.66631 -14.339832,39.13073 -0.729144,21.87432 0,43.74864 0.972192,27.22137 14.339832,39.13077 13.610687,11.9093 35.241957,11.9093 14.33984,0 25.76309,-5.347 11.42326,-5.5901 17.98555,-16.7704 6.5623,-11.4232 6.5623,-28.92267 V 973.43648 H 130.4137 q -2.43048,0 -3.88877,-1.45828 -1.45829,-1.70134 -1.45829,-4.13182 v -3.40267 q 0,-2.67353 1.45829,-4.13182 1.45829,-1.45829 3.88877,-1.45829 h 52.01227 q 2.67353,0 4.13182,1.45829 1.45828,1.45829 1.45828,4.13182 v 21.38822 q 0,19.44387 -7.77753,34.26977 -7.53449,14.8259 -22.36042,23.0896 -14.58288,8.2636 -35.48501,8.2636 z"
       style="font-size:243.048px;line-height:1.25;font-family:Rubik;-inkscape-font-specification:Rubik;fill:#e434aa;stroke-width:6.0762"
       id="path4692" />
    <path
       d="m 227.64809,1049.0244 q -2.43048,0 -3.88877,-1.4583 -1.45829,-1.4583 -1.45829,-3.8887 V 928.22956 q 0,-2.43048 1.45829,-3.88877 1.45829,-1.70134 3.88877,-1.70134 h 3.88877 q 2.43048,0 3.88876,1.70134 1.70134,1.45829 1.70134,3.88877 v 11.1802 q 4.37486,-8.50668 12.6385,-12.63849 8.26363,-4.13182 20.41603,-4.13182 h 8.99277 q 2.43048,0 3.88877,1.45829 1.45829,1.45829 1.45829,3.88877 v 3.40267 q 0,2.43048 -1.45829,3.88877 -1.45829,1.45829 -3.88877,1.45829 H 268.7232 q -14.58288,0 -23.08956,8.50668 -8.50668,8.50668 -8.50668,23.08956 v 75.34492 q 0,2.4304 -1.70134,3.8887 -1.45828,1.4583 -3.88876,1.4583 z"
       style="font-size:243.048px;line-height:1.25;font-family:Rubik;-inkscape-font-specification:Rubik;fill:#e434aa;stroke-width:6.0762"
       id="path4694" />
    <path
       d="m 338.9261,1051.4549 q -11.66631,0 -21.63128,-4.861 -9.72192,-4.8609 -15.79812,-12.8815 -6.0762,-8.2636 -6.0762,-18.4717 0,-16.52722 13.36764,-26.49219 13.36764,-9.96497 34.75587,-12.88155 l 38.40158,-5.34705 v -8.50668 q 0,-12.88155 -8.02058,-20.17299 -7.77754,-7.53448 -25.03395,-7.53448 -12.63849,0 -20.41603,5.104 -7.77754,4.86096 -10.69411,12.88155 -1.21524,3.64572 -4.61791,3.64572 h -3.88877 q -2.91658,0 -4.13182,-1.45829 -1.21524,-1.70134 -1.21524,-3.88877 0,-3.40267 2.43048,-8.50668 2.67353,-5.10401 8.02059,-9.96497 5.34705,-5.104 13.85373,-8.50668 8.50668,-3.40267 20.65908,-3.40267 14.33984,0 23.57566,3.88877 9.47887,3.88877 14.58288,10.20802 5.34706,6.0762 7.53449,13.61068 2.18743,7.53449 2.18743,14.82593 v 80.93503 q 0,2.4304 -1.45829,3.8887 -1.45829,1.4583 -3.88877,1.4583 h -4.13181 q -2.43048,0 -3.88877,-1.4583 -1.45829,-1.4583 -1.45829,-3.8887 v -11.4233 q -2.91657,4.3749 -8.26363,8.7497 -5.34706,4.3749 -13.85374,7.5345 -8.26363,2.9166 -20.90212,2.9166 z m 2.43048,-14.0968 q 11.1802,0 20.41603,-4.861 9.23582,-4.8609 14.58288,-14.8259 5.5901,-10.208 5.5901,-25.52002 v -8.26363 l -31.35319,4.37486 q -19.92994,2.67353 -30.13795,9.23583 -10.20802,6.56226 -10.20802,16.52726 0,8.0206 4.61791,13.1246 4.61791,5.104 11.66631,7.7775 7.29144,2.4305 14.82593,2.4305 z"
       style="font-size:243.048px;line-height:1.25;font-family:Rubik;-inkscape-font-specification:Rubik;fill:#e434aa;stroke-width:6.0762"
       id="path4696" />
    <path
       d="m 440.55814,1095.2035 q -2.43048,0 -3.88876,-1.4583 -1.45829,-1.4582 -1.45829,-3.8887 V 927.98651 q 0,-2.43048 1.45829,-3.88877 1.45828,-1.45829 3.88876,-1.45829 h 4.13182 q 2.43048,0 3.88877,1.45829 1.45829,1.45829 1.45829,3.88877 v 11.42325 q 6.0762,-8.26363 15.79812,-13.61068 9.96496,-5.59011 25.03394,-5.59011 14.33983,0 24.06175,5.10401 9.72192,4.86096 15.79812,13.12459 6.0762,8.26363 8.99278,18.47165 2.91657,10.20802 3.15962,20.90213 0.24305,3.64572 0.24305,8.02058 0,4.37487 -0.24305,8.02059 -0.24305,10.69408 -3.15962,20.90208 -2.91658,10.2081 -8.99278,18.4717 -6.0762,8.2636 -15.79812,13.3676 -9.72192,4.861 -24.06175,4.861 -15.06898,0 -25.03394,-5.5901 -9.72192,-5.5901 -15.79812,-13.6107 v 57.6024 q 0,2.4305 -1.45829,3.8887 -1.45829,1.4583 -3.88877,1.4583 z m 48.85265,-57.8454 q 14.33983,0 22.60347,-6.3192 8.26363,-6.3193 11.90935,-16.5273 3.64572,-10.208 4.13181,-21.87432 0.24305,-6.80535 0,-13.61069 -0.48609,-11.66631 -4.13181,-21.87432 -3.64572,-10.20802 -11.90935,-16.52727 -8.26364,-6.31924 -22.60347,-6.31924 -13.85373,0 -22.36041,6.56229 -8.50668,6.5623 -12.6385,16.52727 -3.88877,9.72192 -4.37486,19.68688 -0.24305,3.64572 -0.24305,9.47888 0,5.83315 0.24305,9.47887 0.24304,9.72195 4.37486,19.20075 4.37486,9.4789 12.88154,15.7982 8.74973,6.3192 22.11737,6.3192 z"
       style="font-size:243.048px;line-height:1.25;font-family:Rubik;-inkscape-font-specification:Rubik;fill:#e434aa;stroke-width:6.0762"
       id="path4698" />
    <path
       d="m 581.54499,1049.0244 q -2.43048,0 -3.88877,-1.4583 -1.45829,-1.4583 -1.45829,-3.8887 V 881.80739 q 0,-2.43048 1.45829,-3.88877 1.45829,-1.45829 3.88877,-1.45829 h 4.13182 q 2.43048,0 3.88876,1.45829 1.45829,1.45829 1.45829,3.88877 v 57.60237 q 6.5623,-8.50668 15.79812,-13.85373 9.47887,-5.34706 25.03395,-5.34706 16.52726,0 27.46442,7.29144 11.18021,7.04839 16.52727,19.44384 5.5901,12.1524 5.5901,27.70747 v 69.02568 q 0,2.4304 -1.45829,3.8887 -1.45829,1.4583 -3.88877,1.4583 h -4.13181 q -2.43048,0 -3.88877,-1.4583 -1.45829,-1.4583 -1.45829,-3.8887 v -67.81044 q 0,-19.44384 -9.47887,-30.381 -9.47887,-11.1802 -27.70747,-11.1802 -17.25641,0 -27.95052,11.1802 -10.45107,10.93716 -10.45107,30.381 v 67.81044 q 0,2.4304 -1.45829,3.8887 -1.45828,1.4583 -3.88876,1.4583 z"
       style="font-size:243.048px;line-height:1.25;font-family:Rubik;-inkscape-font-specification:Rubik;fill:#e434aa;stroke-width:6.0762"
       id="path4700" />
    <path
       d="m 725.13696,1049.0244 q -2.43048,0 -3.88876,-1.4583 -1.45829,-1.4583 -1.45829,-3.8887 V 927.98651 q 0,-2.43048 1.45829,-3.88877 1.45828,-1.45829 3.88876,-1.45829 h 4.13182 q 2.43048,0 3.88877,1.45829 1.45829,1.45829 1.45829,3.88877 v 115.69089 q 0,2.4304 -1.45829,3.8887 -1.45829,1.4583 -3.88877,1.4583 z m -2.67352,-152.39108 q -2.43048,0 -3.88877,-1.45829 -1.45829,-1.45829 -1.45829,-3.88877 v -9.23582 q 0,-2.43048 1.45829,-3.88877 1.45829,-1.70134 3.88877,-1.70134 h 9.23582 q 2.43048,0 3.88877,1.70134 1.70133,1.45829 1.70133,3.88877 v 9.23582 q 0,2.43048 -1.70133,3.88877 -1.45829,1.45829 -3.88877,1.45829 z"
       style="font-size:243.048px;line-height:1.25;font-family:Rubik;-inkscape-font-specification:Rubik;fill:#e434aa;stroke-width:6.0762"
       id="path4702" />
    <path
       d="m 887.16643,1064.8225 q -2.67353,0 -4.61791,-2.1874 -1.94439,-1.9444 -3.15963,-3.4027 l -10.69411,-14.8259 q -14.58288,7.0484 -34.02672,7.0484 -20.17299,0 -34.26977,-7.0484 -14.09678,-7.2914 -21.63127,-22.1174 -7.53449,-15.0689 -8.26363,-37.91546 -0.24305,-10.93716 -0.24305,-20.41603 0,-9.47887 0.24305,-20.41603 0.72914,-22.60346 8.74972,-37.42939 8.02059,-15.06898 22.11737,-22.36042 14.33983,-7.29144 33.29758,-7.29144 18.95774,0 33.05453,7.29144 14.33983,7.29144 22.36041,22.36042 8.26364,14.82593 8.74973,37.42939 0.4861,10.93716 0.4861,20.41603 0,9.47887 -0.4861,20.41603 -1.21524,34.75586 -17.7425,51.04006 l 15.55507,21.8743 q 0.24305,0.2431 0.4861,0.7292 0.24304,0.7291 0.24304,1.9444 0,1.9444 -1.45828,3.4026 -1.45829,1.4583 -3.40268,1.4583 z m -52.49837,-27.9505 q 20.90213,0 34.26977,-12.6385 13.61069,-12.6385 14.58288,-41.0751 0.48609,-10.93716 0.48609,-19.20079 0,-8.26363 -0.48609,-19.20079 -0.4861,-18.95774 -7.04839,-30.8671 -6.31925,-11.90935 -17.25641,-17.2564 -10.69411,-5.59011 -24.54785,-5.59011 -13.61069,0 -24.54785,5.59011 -10.69411,5.34705 -17.25641,17.2564 -6.31925,11.90936 -7.04839,30.8671 -0.24305,10.93716 -0.24305,19.20079 0,8.26363 0.24305,19.20079 0.97219,28.4366 14.58288,41.0751 13.61069,12.6385 34.26977,12.6385 z"
       style="font-size:243.048px;line-height:1.25;font-family:Rubik;-inkscape-font-specification:Rubik;fill:#e434aa;stroke-width:6.0762"
       id="path4704" />
    <path
       d="m 943.33712,1049.0244 q -2.43048,0 -3.88877,-1.4583 -1.45829,-1.4583 -1.45829,-3.8887 V 884.23787 q 0,-2.43048 1.45829,-3.88877 1.45829,-1.45829 3.88877,-1.45829 h 4.61791 q 2.43048,0 3.88877,1.45829 1.45828,1.45829 1.45828,3.88877 v 150.20363 h 83.85152 q 2.6736,0 4.1319,1.4583 1.4582,1.4583 1.4582,4.1318 v 3.6458 q 0,2.4304 -1.4582,3.8887 -1.4583,1.4583 -4.1319,1.4583 z"
       style="font-size:243.048px;line-height:1.25;font-family:Rubik;-inkscape-font-specification:Rubik;fill:#e434aa;stroke-width:6.0762"
       id="path4706" />
    <g
       id="GraphQL-mark">
      <path
         d="m 304.1,619.752 -24.802,-14.319 276.295,-478.545 24.802,14.32 z"
         fill="#e434aa"
         id="path824" />
      <path
         d="M 273.618,567.202 H 826.209 V 595.84 H 273.618 Z"
         fill="#e434aa"
         id="path826" />
      <path
         d="M 560.952,742.875 284.553,583.291 298.872,558.489 575.271,718.073 Z"
         fill="#e434aa"
         id="path828" />
      <path
         d="M 801.059,326.958 524.66,167.374 538.979,142.573 815.378,302.156 Z"
         fill="#e434aa"
         id="path830" />
      <path
         d="m 298.948,326.848 -14.319,-24.8 276.399,-159.584 14.319,24.8 z"
         fill="#e434aa"
         id="path832" />
      <path
         d="M 795.963,619.757 519.667,141.213 544.469,126.894 820.764,605.438 Z"
         fill="#e434aa"
         id="path834" />
      <path
         d="m 295.529,283.056 h 28.638 v 319.168 h -28.638 z"
         fill="#e434aa"
         id="path836" />
      <path
         d="m 775.833,283.056 h 28.638 v 319.168 h -28.638 z"
         fill="#e434aa"
         id="path838" />
      <path
         d="M 556.076,730.752 543.568,709.088 783.96,570.293 796.468,591.957 Z"
         fill="#e434aa"
         id="path840" />
      <path
         d="m 842.427,611.54 c -16.563,28.811 -53.483,38.645 -82.294,22.083 -28.811,-16.562 -38.645,-53.482 -22.083,-82.294 16.562,-28.811 53.482,-38.645 82.294,-22.082 28.983,16.734 38.817,53.482 22.083,82.293"
         fill="#e434aa"
         id="path842" />
      <path
         d="m 361.777,333.951 c -16.562,28.811 -53.482,38.645 -82.293,22.082 -28.811,-16.562 -38.645,-53.482 -22.083,-82.293 16.562,-28.811 53.482,-38.645 82.293,-22.083 28.812,16.735 38.646,53.482 22.083,82.294"
         fill="#e434aa"
         id="path844" />
      <path
         d="m 257.574,611.54 c -16.563,-28.811 -6.729,-65.559 22.082,-82.293 28.812,-16.563 65.559,-6.729 82.294,22.082 16.562,28.812 6.728,65.559 -22.083,82.294 -28.984,16.562 -65.731,6.728 -82.293,-22.083"
         fill="#e434aa"
         id="path846" />
      <path
         d="m 738.223,333.951 c -16.563,-28.812 -6.729,-65.559 22.083,-82.294 28.811,-16.562 65.558,-6.728 82.293,22.083 16.562,28.811 6.728,65.559 -22.083,82.293 -28.811,16.563 -65.731,6.729 -82.293,-22.082"
         fill="#e434aa"
         id="path848" />
      <path
         d="m 550,780.44 c -33.297,0 -60.211,-26.914 -60.211,-60.211 0,-33.296 26.914,-60.21 60.211,-60.21 33.297,0 60.211,26.914 60.211,60.21 0,33.125 -26.914,60.211 -60.211,60.211"
         fill="#e434aa"
         id="path850" />
      <path
         d="m 550,225.261 c -33.297,0 -60.211,-26.914 -60.211,-60.21 0,-33.297 26.914,-60.211 60.211,-60.211 33.297,0 60.211,26.914 60.211,60.211 0,33.296 -26.914,60.21 -60.211,60.21"
         fill="#e434aa"
         id="path852" />
    </g>
  </g>
</svg>
